<svg xmlns="http://www.w3.org/2000/svg" version="1.1" xmlns:xlink="http://www.w3.org/1999/xlink" xmlns:svgjs="http://svgjs.dev/svgjs" width="166.07974" height="192.00031"><svg version="1.1" id="SvgjsSvg1544" x="0px" y="0px" viewBox="0 0 166.07974 192.00031" xml:space="preserve" sodipodi:docname="logo.svg" inkscape:version="1.1.2 (0a00cf5339, 2022-02-04)" width="166.07974" height="192.00031" xmlns:inkscape="http://www.inkscape.org/namespaces/inkscape" xmlns:sodipodi="http://sodipodi.sourceforge.net/DTD/sodipodi-0.dtd" xmlns:xlink="http://www.w3.org/1999/xlink" xmlns="http://www.w3.org/2000/svg" xmlns:svg="http://www.w3.org/2000/svg"><defs id="SvgjsDefs1543"><rect x="95.01947" y="628.82526" width="446.85043" height="71.470749" id="SvgjsRect1542"></rect><linearGradient inkscape:collect="always" id="SvgjsLinearGradient1541"><stop style="stop-color:#666666;stop-opacity:1" offset="0" id="SvgjsStop1540"></stop><stop style="stop-color:#e6e6e6;stop-opacity:1" offset="1" id="SvgjsStop1539"></stop></linearGradient><linearGradient inkscape:collect="always" id="SvgjsLinearGradient1538"><stop style="stop-color:#666666;stop-opacity:1;" offset="0" id="SvgjsStop1537"></stop><stop style="stop-color:#666666;stop-opacity:0;" offset="1" id="SvgjsStop1536"></stop></linearGradient>
	
<style id="SvgjsStyle1535">.cls-1{fill:none;}.cls-2{clip-path:url(#clip-path);}.cls-3{fill:#428bca;}.cls-4{opacity:0.25;fill:url(#linear-gradient);}.cls-5{fill:#3674a8;}.cls-6{fill:#e6b35a;}.cls-7,.cls-9{fill:#fff;}.cls-8,.cls-9{opacity:0.9;}</style><clipPath id="SvgjsClipPath1534"><polygon class="cls-1" points="728.2,216.2 728.2,638.3 369.5,846.7 2.8,638.3 2.8,216.2 369.5,9.1 " id="SvgjsPolygon1533"></polygon></clipPath><linearGradient id="SvgjsLinearGradient1532" x1="366.25" y1="-120.69" x2="-419.26004" y2="856.0304" gradientUnits="userSpaceOnUse"><stop offset="0" stop-color="#fff" stop-opacity="0.83" id="SvgjsStop1531"></stop><stop offset="0.56" stop-color="#fff" stop-opacity="0.37" id="SvgjsStop1530"></stop><stop offset="1" stop-color="#fff" stop-opacity="0" id="SvgjsStop1529"></stop></linearGradient><linearGradient inkscape:collect="always" xlink:href="#linearGradient12999-0" id="SvgjsLinearGradient1528" x1="196.01855" y1="97.18486" x2="488.51004" y2="315.72253" gradientUnits="userSpaceOnUse"></linearGradient>
		
	<linearGradient inkscape:collect="always" xlink:href="#linearGradient12999-0" id="SvgjsLinearGradient1527" x1="-301.50189" y1="729.62213" x2="-137.20238" y2="938.41638" gradientUnits="userSpaceOnUse"></linearGradient><linearGradient inkscape:collect="always" xlink:href="#linearGradient8399" id="SvgjsLinearGradient1526" gradientUnits="userSpaceOnUse" x1="85.140999" y1="256" x2="486.591" y2="256"></linearGradient><linearGradient inkscape:collect="always" xlink:href="#linearGradient8399" id="SvgjsLinearGradient1525" gradientUnits="userSpaceOnUse" x1="85.140999" y1="256" x2="486.591" y2="256"></linearGradient><linearGradient inkscape:collect="always" xlink:href="#linearGradient8399" id="SvgjsLinearGradient1524" gradientUnits="userSpaceOnUse" x1="85.140999" y1="256" x2="486.591" y2="256"></linearGradient><linearGradient inkscape:collect="always" xlink:href="#linearGradient8399" id="SvgjsLinearGradient1523" gradientUnits="userSpaceOnUse" x1="85.140999" y1="256" x2="486.591" y2="256"></linearGradient><linearGradient inkscape:collect="always" xlink:href="#linearGradient8399" id="SvgjsLinearGradient1522" gradientUnits="userSpaceOnUse" x1="85.140999" y1="256" x2="486.591" y2="256"></linearGradient><linearGradient inkscape:collect="always" xlink:href="#linearGradient8399" id="SvgjsLinearGradient1521" gradientUnits="userSpaceOnUse" x1="85.140999" y1="256" x2="486.591" y2="256"></linearGradient><linearGradient inkscape:collect="always" xlink:href="#linearGradient8399" id="SvgjsLinearGradient1520" gradientUnits="userSpaceOnUse" x1="85.140999" y1="256" x2="486.591" y2="256"></linearGradient><linearGradient inkscape:collect="always" xlink:href="#linearGradient8399" id="SvgjsLinearGradient1519" gradientUnits="userSpaceOnUse" x1="85.140999" y1="256" x2="486.591" y2="256"></linearGradient><linearGradient inkscape:collect="always" xlink:href="#linearGradient8399" id="SvgjsLinearGradient1518" gradientUnits="userSpaceOnUse" x1="85.140999" y1="256" x2="486.591" y2="256"></linearGradient><linearGradient inkscape:collect="always" xlink:href="#linearGradient8399" id="SvgjsLinearGradient1517" gradientUnits="userSpaceOnUse" x1="85.140999" y1="256" x2="486.591" y2="256"></linearGradient><linearGradient inkscape:collect="always" xlink:href="#linearGradient8399" id="SvgjsLinearGradient1516" gradientUnits="userSpaceOnUse" x1="85.140999" y1="256" x2="486.591" y2="256"></linearGradient><linearGradient inkscape:collect="always" xlink:href="#linearGradient8399" id="SvgjsLinearGradient1515" gradientUnits="userSpaceOnUse" x1="85.140999" y1="256" x2="486.591" y2="256"></linearGradient><linearGradient inkscape:collect="always" xlink:href="#linearGradient8399" id="SvgjsLinearGradient1514" gradientUnits="userSpaceOnUse" x1="85.140999" y1="256" x2="486.591" y2="256"></linearGradient><linearGradient inkscape:collect="always" xlink:href="#linearGradient12999-0" id="SvgjsLinearGradient1513" gradientUnits="userSpaceOnUse" x1="-301.50189" y1="729.62213" x2="-137.20238" y2="938.41638"></linearGradient><linearGradient inkscape:collect="always" xlink:href="#linearGradient12999-0" id="SvgjsLinearGradient1512" gradientUnits="userSpaceOnUse" x1="-301.50189" y1="729.62213" x2="-137.20238" y2="938.41638"></linearGradient><linearGradient inkscape:collect="always" xlink:href="#linearGradient12999-0" id="SvgjsLinearGradient1511" gradientUnits="userSpaceOnUse" x1="-301.50189" y1="729.62213" x2="-137.20238" y2="938.41638"></linearGradient></defs><sodipodi:namedview id="SvgjsSodipodi:namedview1510" pagecolor="#ffffff" bordercolor="#666666" borderopacity="1.0" inkscape:pageshadow="2" inkscape:pageopacity="0.0" inkscape:pagecheckerboard="0" showgrid="false" inkscape:zoom="0.71777344" inkscape:cx="-12.538775" inkscape:cy="114.93878" inkscape:window-width="2516" inkscape:window-height="1414" inkscape:window-x="44" inkscape:window-y="0" inkscape:window-maximized="1" inkscape:current-layer="Layer_1"></sodipodi:namedview>





<g id="SvgjsG1509" transform="translate(-236.69992,-323.74153)">
</g>
<g id="SvgjsG1508" transform="translate(-236.69992,-323.74153)">
</g>
<g id="SvgjsG1507" transform="translate(-236.69992,-323.74153)">
</g>
<g id="SvgjsG1506" transform="translate(-236.69992,-323.74153)">
</g>
<g id="SvgjsG1505" transform="translate(-236.69992,-323.74153)">
</g>
<g id="SvgjsG1504" transform="translate(-236.69992,-323.74153)">
</g>
<g id="SvgjsG1503" transform="translate(-236.69992,-323.74153)">
</g>
<g id="SvgjsG1502" transform="translate(-236.69992,-323.74153)">
</g>
<g id="SvgjsG1501" transform="translate(-236.69992,-323.74153)">
</g>
<g id="SvgjsG1500" transform="translate(-236.69992,-323.74153)">
</g>
<g id="SvgjsG1499" transform="translate(-236.69992,-323.74153)">
</g>
<g id="SvgjsG1498" transform="translate(-236.69992,-323.74153)">
</g>
<g id="SvgjsG1497" transform="translate(-236.69992,-323.74153)">
</g>
<g id="SvgjsG1496" transform="translate(-236.69992,-323.74153)">
</g>
<g id="SvgjsG1495" transform="translate(-236.69992,-323.74153)">
</g>
<g id="SvgjsG1494" transform="matrix(0.22540681,0,0,0.22566797,10.968343,1.2778974)" inkscape:export-filename="/home/vp22681/Dropbox/Git/interfacer/man/figures/g30854.png" inkscape:export-xdpi="104.4" inkscape:export-ydpi="104.4"><g id="SvgjsG1493" transform="translate(658.98571,203.11855)" style="fill:#d7e3f4;fill-opacity:1;stroke:#000000;stroke-width:2;stroke-miterlimit:4;stroke-dasharray:none;stroke-opacity:1"><g id="SvgjsG1492" transform="translate(-706.74592,-210.3267)" style="fill:#d7e3f4;fill-opacity:1;stroke:#000000;stroke-width:2;stroke-miterlimit:4;stroke-dasharray:none;stroke-opacity:1"><path class="cls-5" d="M 705.6,197.9 427.8,37.5 367.5,2.7 307.2,37.5 29.4,197.9 0.1,214.8 V 639.1 L 29.4,656 310.6,818.4 367.5,851.2 424.4,818.4 705.6,656 734.9,639.1 V 214.8 Z" id="SvgjsPath1491" style="fill:#d7e3f4;fill-opacity:1;stroke:#000000;stroke-width:2;stroke-miterlimit:4;stroke-dasharray:none;stroke-opacity:1" sodipodi:nodetypes="ccccccccccccccc"></path></g><g class="cls-8" id="SvgjsG1490" transform="translate(-0.56938775,24.407823)" style="fill:#d7e3f4;fill-opacity:1;stroke:#000000;stroke-width:2;stroke-miterlimit:4;stroke-dasharray:none;stroke-opacity:1"></g></g><g id="SvgjsG1489" transform="translate(658.98571,203.11855)" style="fill:url(#linearGradient12835);fill-opacity:1;stroke:#000000;stroke-width:2;stroke-miterlimit:4;stroke-dasharray:none;stroke-opacity:1"><g id="SvgjsG1488" transform="translate(-706.74592,-210.3267)" style="fill:url(#linearGradient14679);fill-opacity:1;stroke:#000000;stroke-width:2;stroke-miterlimit:4;stroke-dasharray:none;stroke-opacity:1"><path class="cls-5" d="M 705.6,197.9 427.8,37.5 367.5,2.7 307.2,37.5 29.4,197.9 0.1,214.8 V 639.1 L 29.4,656 310.6,818.4 367.5,851.2 424.4,818.4 705.6,656 734.9,639.1 V 214.8 Z m 0,425.3 L 367.5,818.4 29.4,623.2 V 232.7 L 367.5,37.5 v 0 l 338.1,195.2 z" id="SvgjsPath1487" style="fill:url(#linearGradient14677);fill-opacity:1;stroke:#000000;stroke-width:2;stroke-miterlimit:4;stroke-dasharray:none;stroke-opacity:1"></path></g><g class="cls-8" id="SvgjsG1486" transform="translate(-0.56938775,24.407823)" style="fill:url(#linearGradient14681);fill-opacity:1;stroke:#000000;stroke-width:2;stroke-miterlimit:4;stroke-dasharray:none;stroke-opacity:1"></g></g><g id="SvgjsG1485" style="fill:url(#linearGradient8401);fill-opacity:1;stroke:#000000;stroke-width:2;stroke-miterlimit:4;stroke-dasharray:none;stroke-opacity:1" transform="translate(27.865986,102.51659)"><path d="m 117.041,375.058 c 6.532,15.026 14.019,29.35 22.392,42.694 38.134,60.777 90.139,94.248 146.433,94.248 56.294,0 108.3,-33.471 146.434,-94.248 33.868,-53.977 53.291,-123.923 53.291,-191.905 10e-4,-62.118 -15.967,-115.889 -46.175,-155.5 C 404.319,24.326 351.222,0 285.866,0 220.51,0 167.414,24.326 132.316,70.347 109.844,99.814 95.261,137.12 89.26,179.865 l -2.909,33.861 c -0.137,4.004 -0.21,8.044 -0.21,12.121 0,37.851 6.029,76.308 17.213,112.283 z m 152.13,6.445 h -33.776 v 33.391 h 33.776 V 477.28 C 180.176,463.227 119.532,338.485 119.532,225.846 c 0,-53.957 13.97,-101.989 39.336,-135.251 25.964,-34.046 63.023,-53.027 110.303,-56.579 z M 302.562,34.016 c 5.85,0.44 11.546,1.111 17.081,2.022 v 85.633 l -17.081,9.668 z m 71.716,403.905 9.294,-65.003 38.521,-6.948 c -12.58,27.889 -28.741,52.737 -47.815,71.951 z m -20.35,-93.587 -17.406,121.741 c -10.766,5.505 -22.112,9.335 -33.96,11.206 v -62.386 h 33.776 V 381.504 H 302.562 V 169.71 l 50.472,-28.571 V 45.147 c 12.892,5.1 24.648,11.846 35.224,20.241 v 87.596 h 33.391 v -49.54 c 19.785,32.249 30.551,75.042 30.551,122.403 0,34.61 -5.736,70.359 -16.248,103.693 z" id="SvgjsPath1484" sodipodi:nodetypes="ccscccscccscccccccsccccccccccccccccccccccccccscc" style="fill:url(#linearGradient14153);fill-opacity:1;stroke:#000000;stroke-width:2;stroke-miterlimit:4;stroke-dasharray:none;stroke-opacity:1"></path><g id="SvgjsG1483" style="fill:url(#linearGradient14159);fill-opacity:1;stroke:#000000;stroke-width:2;stroke-miterlimit:4;stroke-dasharray:none;stroke-opacity:1">
	<g id="SvgjsG1482" style="fill:url(#linearGradient14157);fill-opacity:1;stroke:#000000;stroke-width:2;stroke-miterlimit:4;stroke-dasharray:none;stroke-opacity:1">
		<path d="m 373.201,203.788 c -29.668,0 -53.806,24.137 -53.806,53.806 0,29.669 24.137,53.807 53.806,53.807 29.668,0 53.807,-24.137 53.807,-53.807 0,-29.668 -24.139,-53.806 -53.807,-53.806 z m 0,74.221 c -11.256,0 -20.414,-9.158 -20.414,-20.415 0,-11.256 9.158,-20.414 20.414,-20.414 11.256,0 20.415,9.158 20.415,20.414 0.001,11.257 -9.159,20.415 -20.415,20.415 z" id="SvgjsPath1481" style="fill:url(#linearGradient14155);fill-opacity:1;stroke:#000000;stroke-width:2;stroke-miterlimit:4;stroke-dasharray:none;stroke-opacity:1"></path>
	</g>
</g><g id="SvgjsG1480" style="fill:url(#linearGradient14165);fill-opacity:1;stroke:#000000;stroke-width:2;stroke-miterlimit:4;stroke-dasharray:none;stroke-opacity:1">
	<g id="SvgjsG1479" style="fill:url(#linearGradient14163);fill-opacity:1;stroke:#000000;stroke-width:2;stroke-miterlimit:4;stroke-dasharray:none;stroke-opacity:1">
		<circle cx="373.203" cy="257.59201" r="13.866" id="SvgjsCircle1478" style="fill:url(#linearGradient14161);fill-opacity:1;stroke:#000000;stroke-width:2;stroke-miterlimit:4;stroke-dasharray:none;stroke-opacity:1"></circle>
	</g>
</g><g id="SvgjsG1477" style="fill:url(#linearGradient14171);fill-opacity:1;stroke:#000000;stroke-width:2;stroke-miterlimit:4;stroke-dasharray:none;stroke-opacity:1">
	<g id="SvgjsG1476" style="fill:url(#linearGradient14169);fill-opacity:1;stroke:#000000;stroke-width:2;stroke-miterlimit:4;stroke-dasharray:none;stroke-opacity:1">
		<path d="m 197.152,171.071 c -17.357,0 -34.384,3.033 -49.239,8.77 l 12.03,31.148 c 11.058,-4.27 23.925,-6.527 37.21,-6.527 13.285,0 26.152,2.257 37.21,6.527 l 12.03,-31.148 c -14.858,-5.737 -31.884,-8.77 -49.241,-8.77 z" id="SvgjsPath1475" style="fill:url(#linearGradient14167);fill-opacity:1;stroke:#000000;stroke-width:2;stroke-miterlimit:4;stroke-dasharray:none;stroke-opacity:1"></path>
	</g>
</g><g id="SvgjsG1474" style="fill:url(#linearGradient14177);fill-opacity:1;stroke:#000000;stroke-width:2;stroke-miterlimit:4;stroke-dasharray:none;stroke-opacity:1">
	<g id="SvgjsG1473" style="fill:url(#linearGradient14175);fill-opacity:1;stroke:#000000;stroke-width:2;stroke-miterlimit:4;stroke-dasharray:none;stroke-opacity:1">
		<path d="m 223.234,242.771 c -1.574,1.218 -3.543,1.95 -5.685,1.95 -5.138,0 -9.304,-4.165 -9.304,-9.304 0,-3.712 2.179,-6.906 5.324,-8.4 -4.526,-3.563 -10.232,-5.693 -16.439,-5.693 -14.695,0 -26.608,11.913 -26.608,26.608 0,14.696 11.913,26.608 26.608,26.608 14.696,0 26.608,-11.913 26.608,-26.608 0,-1.766 -0.175,-3.49 -0.504,-5.161 z" id="SvgjsPath1472" style="fill:url(#linearGradient14173);fill-opacity:1;stroke:#000000;stroke-width:2;stroke-miterlimit:4;stroke-dasharray:none;stroke-opacity:1"></path>
	</g>
</g></g><text xml:space="preserve" id="SvgjsText1471" style="font-size:24px;line-height:1.25;font-family:Roboto;-inkscape-font-specification:'Roboto, Normal';font-variant-ligatures:none;white-space:pre;shape-inside:url(#rect20134);fill:#8e94ba;fill-opacity:1;stroke:#000000;stroke-width:0.588673;stroke-miterlimit:4;stroke-dasharray:none;stroke-opacity:1" transform="matrix(3.397472,0,0,3.397472,-172.52302,-1516.0948)" svgjs:data="{&quot;leading&quot;:&quot;1.3&quot;}"><tspan x="95.019531" y="650.89467" id="SvgjsTspan1470">interfacer</tspan></text></g></svg><style>@media (prefers-color-scheme: light) { :root { filter: none; } }
@media (prefers-color-scheme: dark) { :root { filter: none; } }
</style></svg>